<?xml version="1.0" encoding="UTF-8"?>
<svg xmlns="http://www.w3.org/2000/svg" viewBox="0 0 1100 836" width="250" height="190" role="img" aria-label="Three whole notes stacked in the three spaces of a four-line staff">
  <defs>
    <path id="wholeNote" d="M50 135Q50 172 77.0 200.0Q104 228 150.5 244.0Q197 260 253 260Q310 260 358.0 244.5Q406 229 435.0 201.0Q464 173 464 135Q464 96 436.0 67.5Q408 39 361.5 23.5Q315 8 259 8Q203 8 155.5 23.0Q108 38 79.0 66.5Q50 95 50 135ZM280 28Q314 28 326.5 53.0Q339 78 339 112Q339 147 324.5 176.0Q310 205 286.0 222.5Q262 240 232 240Q198 240 186.5 215.0Q175 190 175 156Q175 122 189.0 93.0Q203 64 226.5 46.0Q250 28 280 28Z" fill-rule="evenodd"/>
  </defs>
  <g transform="translate(0,796) scale(1,-1)">
    <path d="M50 732V756H1050V732ZM50 488V512H1050V488ZM50 244V268H1050V244ZM50 0V24H1050V0Z" fill="#d58a45"/>
    <use href="#wholeNote" fill="#d58a45" transform="translate(293,0)"/>
    <use href="#wholeNote" fill="#d58a45" transform="translate(293,244)"/>
    <use href="#wholeNote" fill="#d58a45" transform="translate(293,488)"/>
  </g>
</svg>
